<svg xmlns="http://www.w3.org/2000/svg" width="18" height="16" viewBox="0 0 18 16" fill="none">
<path d="M16 5H13V2C13 0.896875 12.1031 0 11 0H2C0.896875 0 0 0.896875 0 2V7C0 8.10312 0.896875 9 2 9H3V10.625C3 10.8469 3.18125 11 3.375 11C3.45 11 3.52813 10.9781 3.59687 10.925L6 9.56563V12C6 13.1031 6.89687 14 8 14H11L14.4031 15.925C14.4719 15.975 14.55 16 14.625 16C14.8188 16 15 15.8469 15 15.625V14H16C17.1031 14 18 13.1031 18 12V7C18 5.89687 17.1031 5 16 5ZM2 8C1.45 8 1 7.55 1 7V2C1 1.45 1.45 1 2 1H11C11.55 1 12 1.45 12 2V7C12 7.55 11.55 8 11 8H6.7375L6.50938 8.13125L4 9.55V8H2ZM17 12C17 12.55 16.55 13 16 13H14V14.55L11.4937 13.1313L11.2656 13H8C7.45 13 7 12.55 7 12V9H11C12.1031 9 13 8.10312 13 7V6H16C16.55 6 17 6.45 17 7V12Z" fill="#222222"/>
</svg>