<svg xmlns="http://www.w3.org/2000/svg" width="24" height="24" viewBox="0 0 24 24" fill="#D85050">
<path d="M13.0606 12L16.2656 8.795L16.9266 8.13406C17.0241 8.03656 17.0241 7.87813 16.9266 7.78063L16.2194 7.07344C16.1219 6.97594 15.9634 6.97594 15.8659 7.07344L12 10.9394L8.13406 7.07312C8.03656 6.97563 7.87812 6.97563 7.78062 7.07312L7.07312 7.78031C6.97563 7.87781 6.97563 8.03625 7.07312 8.13375L10.9394 12L7.07312 15.8659C6.97563 15.9634 6.97563 16.1219 7.07312 16.2194L7.78031 16.9266C7.87781 17.0241 8.03625 17.0241 8.13375 16.9266L12 13.0606L15.205 16.2656L15.8659 16.9266C15.9634 17.0241 16.1219 17.0241 16.2194 16.9266L16.9266 16.2194C17.0241 16.1219 17.0241 15.9634 16.9266 15.8659L13.0606 12Z"/>
</svg>