<svg xmlns="http://www.w3.org/2000/svg" width="24" height="24" viewBox="0 0 24 24" fill="#B2B2B2">
<path d="M19 9H16V6C16 4.89688 15.1031 4 14 4H5C3.89688 4 3 4.89688 3 6V11C3 12.1031 3.89688 13 5 13H6V14.625C6 14.8469 6.18125 15 6.375 15C6.45 15 6.52813 14.9781 6.59687 14.925L9 13.5656V16C9 17.1031 9.89687 18 11 18H14L17.4031 19.925C17.4719 19.975 17.55 20 17.625 20C17.8188 20 18 19.8469 18 19.625V18H19C20.1031 18 21 17.1031 21 16V11C21 9.89687 20.1031 9 19 9ZM5 12C4.45 12 4 11.55 4 11V6C4 5.45 4.45 5 5 5H14C14.55 5 15 5.45 15 6V11C15 11.55 14.55 12 14 12H9.7375L9.50938 12.1313L7 13.55V12H5ZM20 16C20 16.55 19.55 17 19 17H17V18.55L14.4937 17.1313L14.2656 17H11C10.45 17 10 16.55 10 16V13H14C15.1031 13 16 12.1031 16 11V10H19C19.55 10 20 10.45 20 11V16Z"/>
</svg>