<svg width="151" height="41" viewBox="0 0 151 41" fill="none" xmlns="http://www.w3.org/2000/svg">
<rect x="0.992188" y="0.994141" width="39.9391" height="39.9391" fill="#2A6654"/>
<path d="M24.3555 24.1587L32.0437 26.8546C32.5703 26.03 32.9425 25.1165 33.1421 24.1587H24.3555Z" fill="#C4D600"/>
<path d="M30.8457 28.6518L21.8594 24.1587L28.1498 31.148C29.0956 30.3684 29.9957 29.5349 30.8457 28.6518V28.6518Z" fill="#C4D600"/>
<path d="M20.4609 24.1587L22.1583 33.7441C23.2758 33.4382 24.3758 33.0715 25.4533 32.6458L20.4609 24.1587Z" fill="#C4D600"/>
<path d="M18.9644 34.2433L19.5635 24.1587L15.0703 33.9438C16.0565 34.1423 17.0598 34.2426 18.0657 34.2433H18.9644Z" fill="#C4D600"/>
<path d="M11.8753 32.8454L18.3654 24.1587L8.48047 30.1496C9.40505 31.2819 10.563 32.2014 11.8753 32.8454Z" fill="#C4D600"/>
<path d="M6.58498 24.1587C6.4582 25.3059 6.59479 26.467 6.98437 27.5535L16.4699 24.1587H6.58498Z" fill="#C4D600"/>
<path d="M21.1602 21.7624L22.3583 20.2646H25.1541L26.3522 21.7624H21.1602V21.7624Z" fill="white"/>
<path d="M18.6641 21.1633L20.0619 16.9697L21.4598 21.1633H18.6641V21.1633Z" fill="white"/>
<path d="M15.0703 22.6608L15.7692 21.1631H18.565L19.4636 22.6608H15.0703Z" fill="white"/>
<path d="M32.845 7.38407C31.0177 7.24811 29.1843 7.21477 27.3533 7.28422C22.4762 7.48415 17.7897 9.23286 13.9737 12.2766C10.5286 14.8403 8.06269 18.504 6.98438 22.6608H7.18407C8.88148 17.269 13.774 13.0754 20.7634 11.8772C23.19 11.5929 25.6449 11.6602 28.0523 12.0769L32.845 7.38407Z" fill="#CB521C"/>
<path fill-rule="evenodd" clip-rule="evenodd" d="M57.7059 17.7682H65.1945V24.8574C63.0913 25.8246 60.818 26.3675 58.5047 26.4549C53.9117 26.4549 50.8164 23.3597 50.8164 18.8665C50.8164 14.3734 54.1114 11.3779 58.9041 11.3779C60.5845 11.4031 62.2578 11.6039 63.8965 11.977L63.5969 14.3734C62.1849 14.0546 60.7488 13.8542 59.3035 13.7743C55.9086 13.7743 53.712 15.7712 53.712 18.7667C53.6093 20.1285 54.0986 21.4685 55.0546 22.4437C56.0107 23.4189 57.3408 23.9347 58.7044 23.8589C60.1229 23.849 61.5335 23.6475 62.898 23.2598V20.1645H57.7059V17.7682ZM74.0809 20.9633C74.0809 17.7682 76.2776 15.5715 79.6724 15.5715C81.1486 15.4722 82.598 16.0013 83.663 17.0283C84.7281 18.0553 85.3095 19.4845 85.2639 20.9633C85.2639 24.0514 82.7605 26.5548 79.6724 26.5548C76.5843 26.5548 74.0809 24.0514 74.0809 20.9633ZM135.188 15.6714C133.729 15.6759 132.28 15.9118 130.894 16.3703C130.055 15.8596 129.08 15.6159 128.099 15.6714C126.356 15.6711 124.617 15.8383 122.907 16.1706V25.9557H125.303V17.9679C126.063 17.8518 126.83 17.7851 127.599 17.7682C129.197 17.7682 129.896 18.4671 129.896 20.0647V25.8559H132.392V19.3658C132.39 18.9256 132.323 18.4881 132.192 18.0677C132.976 17.8699 133.781 17.7693 134.589 17.7682C136.186 17.7682 136.885 18.567 136.885 20.1645V25.9557H139.282V19.5654C139.381 16.8696 137.684 15.6714 135.188 15.6714ZM141.977 16.1706C143.423 15.8677 144.894 15.7006 146.371 15.6714C149.366 15.6714 150.764 16.8696 150.864 19.6653V26.0556C148.918 26.3874 146.947 26.5544 144.973 26.5548C142.477 26.5548 141.079 25.3566 141.079 23.16C141.079 21.163 142.477 20.0647 145.572 19.9648L148.468 19.7651V19.6653C148.468 18.4671 147.669 17.868 146.171 17.868C144.864 17.8971 143.562 18.0306 142.277 18.2674L141.977 16.1706ZM143.275 22.9603C143.275 23.8589 144.074 24.3581 145.472 24.3581C146.479 24.3802 147.485 24.2796 148.468 24.0586V21.3627L145.372 21.5624C143.974 21.6623 143.275 22.0616 143.275 22.9603ZM113.221 22.9603C113.221 23.8589 114.02 24.3581 115.418 24.3581C116.425 24.3722 117.429 24.2717 118.413 24.0586V21.3627L115.318 21.5624C113.92 21.6623 113.221 22.0616 113.221 22.9603ZM116.317 15.6714C114.84 15.7006 113.369 15.8677 111.923 16.1706L112.223 18.2674C113.508 18.0306 114.81 17.8971 116.117 17.868C117.615 17.868 118.413 18.4671 118.413 19.6653V19.7651L115.518 19.9648C112.422 20.0647 111.025 21.163 111.025 23.16C111.025 25.3566 112.422 26.5548 114.919 26.5548C116.893 26.5544 118.864 26.3874 120.81 26.0556V19.6653C120.71 16.8696 119.312 15.6714 116.317 15.6714ZM101.639 23.8589C102.597 24.0062 103.565 24.073 104.535 24.0586C105.329 24.0569 106.086 23.7197 106.618 23.1302C107.15 22.5407 107.409 21.7538 107.33 20.9633C107.33 19.0662 106.531 17.6683 104.335 17.6683C103.433 17.6777 102.532 17.7444 101.639 17.868V23.8589ZM104.734 15.6714C102.894 15.701 101.058 15.8679 99.2426 16.1706V30.0495H101.639V25.9557C102.697 26.11 103.765 26.1768 104.834 26.1554C107.73 26.1554 109.727 24.0586 109.727 20.9633C109.727 17.868 107.929 15.6714 104.734 15.6714ZM94.35 16.0708H96.8462V25.9557C94.9304 26.2612 92.995 26.4281 91.0551 26.4549C88.5589 26.4549 86.8615 25.3566 86.8615 22.5609V16.0708H89.2578V21.9618C89.1571 22.605 89.3624 23.2584 89.8129 23.7285C90.2633 24.1985 90.9074 24.4314 91.5543 24.3581C92.3706 24.3581 93.1868 24.2758 94.0779 24.1858L94.35 24.1584V16.0708ZM79.6724 24.2583C78.8081 24.3181 77.9601 24.0008 77.3475 23.3881C76.7348 22.7754 76.4175 21.9275 76.4773 21.0632C76.4175 20.1988 76.7348 19.3509 77.3475 18.7382C77.9601 18.1256 78.8081 17.8082 79.6724 17.868C80.5199 17.8378 81.3405 18.1683 81.9305 18.7774C82.5205 19.3864 82.8248 20.2171 82.7677 21.0632C82.8248 21.9093 82.5205 22.7399 81.9305 23.349C81.3405 23.958 80.5199 24.2885 79.6724 24.2583ZM73.5817 15.6714L73.4819 15.6737V15.6714H73.5817ZM73.4819 15.6737V18.0677C72.1838 18.0677 70.9857 18.0677 69.7875 18.1676V25.9557H67.3911V16.2705C69.4042 15.9235 71.4398 15.724 73.4819 15.6737Z" fill="#2A6654"/>
</svg>
