<svg xmlns="http://www.w3.org/2000/svg" width="40" height="40" viewBox="0 0 40 40" fill="#01ac9e">
<path d="M19.9998 24.9993C22.7613 24.9993 24.9998 22.7608 24.9998 19.9993V11.666C24.9998 8.90456 22.7613 6.66602 19.9998 6.66602C17.2384 6.66602 14.9998 8.90456 14.9998 11.666V19.9993C14.9998 22.7608 17.2384 24.9993 19.9998 24.9993ZM16.6665 11.666C16.6665 9.82799 18.1618 8.33268 19.9998 8.33268C21.8379 8.33268 23.3332 9.82799 23.3332 11.666V19.9993C23.3332 21.8374 21.8379 23.3327 19.9998 23.3327C18.1618 23.3327 16.6665 21.8374 16.6665 19.9993V11.666ZM27.9165 16.666H27.0832C26.853 16.666 26.6665 16.8525 26.6665 17.0827V19.9993C26.6665 23.8254 23.4269 26.9098 19.5452 26.6509C16.005 26.415 13.3332 23.3124 13.3332 19.7645V17.0827C13.3332 16.8525 13.1467 16.666 12.9165 16.666H12.0832C11.853 16.666 11.6665 16.8525 11.6665 17.0827V19.7046C11.6665 24.0478 14.8774 27.8358 19.1665 28.2686V31.666H15.4165C15.1863 31.666 14.9998 31.8525 14.9998 32.0827V32.916C14.9998 33.1462 15.1863 33.3327 15.4165 33.3327H24.5832C24.8134 33.3327 24.9998 33.1462 24.9998 32.916V32.0827C24.9998 31.8525 24.8134 31.666 24.5832 31.666H20.8332V28.2801C25.0368 27.8587 28.3332 24.3118 28.3332 19.9993V17.0827C28.3332 16.8525 28.1467 16.666 27.9165 16.666Z"/>
</svg>