<svg xmlns="http://www.w3.org/2000/svg" width="24" height="24" viewBox="0 0 24 24" fill="#B2B2B2">
<path d="M19.375 4.25H19.0625C18.8554 4.25 18.6875 4.41791 18.6875 4.625V8.08209C17.3415 5.78941 14.8507 4.25 12 4.25C7.85087 4.25 4.46325 7.51056 4.25969 11.6092C4.24909 11.8222 4.42109 12 4.63441 12H4.94741C5.14594 12 5.31134 11.8453 5.32169 11.6471C5.50491 8.13175 8.40928 5.3125 12 5.3125C14.5894 5.3125 16.8355 6.78366 17.9465 8.9375H14.375C14.1679 8.9375 14 9.10541 14 9.3125V9.625C14 9.83209 14.1679 10 14.375 10H19.375C19.5821 10 19.75 9.83209 19.75 9.625V4.625C19.75 4.41791 19.5821 4.25 19.375 4.25ZM19.3656 12H19.0526C18.8541 12 18.6887 12.1547 18.6783 12.3529C18.495 15.8799 15.5796 18.6875 12 18.6875C9.4185 18.6875 7.1665 17.2203 6.05316 15.0625H9.625C9.83209 15.0625 10 14.8946 10 14.6875V14.375C10 14.1679 9.83209 14 9.625 14H4.625C4.41791 14 4.25 14.1679 4.25 14.375V19.375C4.25 19.5821 4.41791 19.75 4.625 19.75H4.9375C5.14459 19.75 5.3125 19.5821 5.3125 19.375V15.9179C6.65847 18.2106 9.14928 19.75 12 19.75C16.1492 19.75 19.5367 16.4894 19.7403 12.3908C19.7509 12.1778 19.5789 12 19.3656 12Z"/>
</svg>