<svg xmlns="http://www.w3.org/2000/svg" width="33" height="33" viewBox="0 0 33 33" fill="#D85050">
<path d="M24.2477 6.72461H9.58105C8.47689 6.72461 7.58105 7.62044 7.58105 8.72461V23.3913C7.58105 24.4954 8.47689 25.3913 9.58105 25.3913H24.2477C25.3519 25.3913 26.2477 24.4954 26.2477 23.3913V8.72461C26.2477 7.62044 25.3519 6.72461 24.2477 6.72461ZM24.9144 23.3913C24.9144 23.7579 24.6144 24.0579 24.2477 24.0579H9.58105C9.21439 24.0579 8.91439 23.7579 8.91439 23.3913V8.72461C8.91439 8.35794 9.21439 8.05794 9.58105 8.05794H24.2477C24.6144 8.05794 24.9144 8.35794 24.9144 8.72461V23.3913Z"/>
</svg>